<svg xmlns="http://www.w3.org/2000/svg" width="96" height="96" viewBox="0 0 96 96" fill="none">
  <g clip-path="url(#clip0_8614_110188)">
    <path fill-rule="evenodd" clip-rule="evenodd" d="M65.001 41.0117V64.9998C65.001 72.7921 59.4307 79.2833 52.0548 80.7088L52.2382 80.7484C57.3339 81.8489 57.5284 89.0471 52.4996 90.4213C50.1869 91.0532 47.7522 89.9479 46.7057 87.791L46.3375 87.0323L47.6372 95.8545L45.6586 96.146L44.168 86.0278L42.6774 96.146L40.6987 95.8545L41.9986 87.0308L41.6298 87.791C40.5832 89.9479 38.1485 91.0532 35.8359 90.4213C30.8238 89.0517 31.0004 81.8967 36.0466 80.7595C26.4777 79.2658 19.1562 70.9878 19.1562 60.9998V52.5834H21.1562V60.9998C21.1562 70.941 29.2151 78.9998 39.1562 78.9998H49.001C56.733 78.9998 63.001 72.7318 63.001 64.9998V41.0117H65.001ZM42.5024 81.4111L36.5195 82.7033C33.47 83.3619 33.3536 87.6697 36.3631 88.492C37.7471 88.8702 39.2041 88.2087 39.8304 86.9179L42.5024 81.4111ZM51.816 82.7033L45.8331 81.4111L48.5051 86.9179C49.1314 88.2087 50.5884 88.8702 51.9724 88.492C54.9819 87.6697 54.8655 83.3619 51.816 82.7033Z" fill="white"/>
    <path d="M59.8203 68.5332L63.8203 60.5332L67.8203 68.5332H59.8203Z" fill="#ECD069"/>
    <path d="M96 32C96 49.6731 81.6731 64 64 64C46.3269 64 32 49.6731 32 32C32 14.3269 46.3269 0 64 0C81.6731 0 96 14.3269 96 32Z" fill="#ECD069"/>
    <path d="M48.5117 28.2344C48.5078 28.2402 48.5039 28.2422 48.5 28.2461C48.5039 28.2422 48.5059 28.2383 48.5098 28.2344C48.5117 28.2344 48.5117 28.2344 48.5117 28.2344Z" fill="white"/>
    <path fill-rule="evenodd" clip-rule="evenodd" d="M40 36C40 47.045 31.045 56 20 56C8.955 56 0 47.045 0 36C0 24.955 8.95499 16 20 16C31.045 16 40 24.955 40 36ZM10.4256 36C14.3451 33.639 17.6389 30.3459 20 26.4277C22.3611 30.3458 25.6549 33.639 29.5744 36C25.6549 38.361 22.3611 41.6541 20 45.5723C17.6389 41.6541 14.3451 38.361 10.4256 36Z" fill="#44C28D"/>
    <path fill-rule="evenodd" clip-rule="evenodd" d="M36.1589 47.7877C33.5118 43.1294 32 37.7416 32 32.0008C32 28.3197 32.6216 24.7837 33.7655 21.4922C37.6054 25.1367 40 30.2893 40 36.0008C40 40.4079 38.5743 44.4823 36.1589 47.7877Z" fill="#0052FF"/>
    <path fill-rule="evenodd" clip-rule="evenodd" d="M64.0013 51.3327C74.6788 51.3327 83.3346 42.6769 83.3346 31.9993C83.3346 21.3218 74.6788 12.666 64.0013 12.666C53.3238 12.666 44.668 21.3218 44.668 31.9993C44.668 42.6769 53.3238 51.3327 64.0013 51.3327ZM64.0013 53.3327C75.7834 53.3327 85.3346 43.7814 85.3346 31.9993C85.3346 20.2173 75.7834 10.666 64.0013 10.666C52.2192 10.666 42.668 20.2173 42.668 31.9993C42.668 43.7814 52.2192 53.3327 64.0013 53.3327Z" fill="#0A0B0D"/>
    <path d="M16 60.373L20 52.373L24 60.373H16Z" fill="#44C28D"/>
  </g>
  <defs>
    <clipPath id="clip0_8614_110188">
      <rect width="96" height="96" fill="white"/>
    </clipPath>
  </defs>
</svg>